<svg width="86" height="100" viewBox="0 0 86 100" fill="none" xmlns="http://www.w3.org/2000/svg">
<g clip-path="url(#clip0_299_407)">
<path d="M2.59082 14.7636C5.85253 13.3098 9.18831 12.0297 12.5402 10.801C15.892 9.57227 19.3019 8.44972 22.7085 7.40759C26.1151 6.36545 29.57 5.40373 33.041 4.51277C36.512 3.6218 40.012 2.90453 43.5281 2.20977C47.0442 1.51502 50.6118 1.03255 54.1536 0.627272C57.6954 0.221997 61.3081 0.0225755 64.8983 6.02277e-05C68.4897 -0.0388397 72.0787 0.199891 75.6333 0.714116C79.1881 1.20386 82.6665 2.14197 85.9851 3.50601C82.5853 2.46603 79.0834 1.79422 75.5399 1.50215L74.2165 1.37028L72.8899 1.30273C72.0045 1.26735 71.1222 1.19337 70.2368 1.20624L67.5804 1.18694L64.924 1.2577C61.3822 1.42817 57.8403 1.70479 54.3339 2.15509C50.8275 2.6054 47.3114 3.1522 43.8211 3.80836C36.8404 5.11103 29.9242 6.75464 23.053 8.61055C19.6206 9.54332 16.1947 10.5147 12.7881 11.5472C9.3815 12.5797 5.97811 13.6411 2.59082 14.7636Z" fill="#262626"/>
<path d="M0.0148926 29.5595C1.68488 29.0388 3.38907 28.6347 5.11514 28.3501C6.8324 28.0499 8.57005 27.8279 10.3281 27.6843C13.8247 27.3916 17.3375 27.3432 20.8409 27.5395C24.3482 27.7273 27.842 28.1139 31.3055 28.6975C34.77 29.2796 38.1895 30.0902 41.5768 31.0069L44.1076 31.737L46.6094 32.5476C47.028 32.6859 47.4466 32.8113 47.8587 32.9593L49.0984 33.4031C49.9227 33.7023 50.7534 33.9821 51.5712 34.3005L54.0087 35.2655C54.4144 35.4327 54.8233 35.5871 55.229 35.7608L56.43 36.2883L58.8384 37.3433L61.2018 38.4884C67.4987 41.5402 73.53 45.111 79.233 49.1638C73.2186 45.6645 67.0259 42.4802 60.6802 39.6238C54.358 36.7809 47.8313 34.4156 41.155 32.5476C34.4881 30.6612 27.659 29.4023 20.7572 28.7875C19.0314 28.6235 17.3023 28.5431 15.57 28.4659C14.7039 28.4273 13.8377 28.4305 12.9716 28.4144C12.1055 28.3983 11.2361 28.4144 10.3732 28.453C8.63767 28.4852 6.90538 28.6138 5.17632 28.7746C4.31018 28.8518 3.44726 28.9644 2.60044 29.0963C1.75361 29.2282 0.864935 29.3665 0.0148926 29.5595Z" fill="#262626"/>
<path d="M6.77661 42.1036C8.40087 42.1311 10.0142 42.3745 11.5742 42.8273C13.1442 43.262 14.6747 43.8279 16.1496 44.5192C19.1055 45.9104 21.8784 47.6605 24.4053 49.7299C26.938 51.7878 29.2837 54.0654 31.4149 56.5359L32.2103 57.4623C32.4775 57.7839 32.7383 58.0831 32.983 58.4079L34.4835 60.3378C34.9665 60.9811 35.4494 61.6598 35.9066 62.3191C36.1417 62.6408 36.3864 62.9624 36.6086 63.3163L37.2783 64.3359C39.0782 67.0441 40.6495 69.8907 42.1725 72.7502L43.2383 74.9374L43.7695 76.0277L44.0368 76.5745L44.2847 77.131L45.2507 79.3503L45.7369 80.4632C45.8979 80.8331 46.0363 81.2127 46.1909 81.589C48.6277 87.5739 50.6282 93.727 52.1766 100C49.9871 93.9338 47.6881 87.9287 45.051 82.0811C42.4643 76.226 39.4151 70.5858 35.9324 65.214L35.2884 64.2072C35.0695 63.8856 34.8312 63.5639 34.6058 63.2262C34.1454 62.5829 33.6946 61.9171 33.2245 61.2706L31.7724 59.3729C31.5341 59.0512 31.2797 58.7296 31.0221 58.4433L30.2622 57.5234C28.2273 55.0735 26.0008 52.7891 23.6036 50.6916L22.6988 49.91C22.3961 49.6559 22.0774 49.4179 21.765 49.1702C21.4527 48.9226 21.1436 48.6749 20.8216 48.4401L19.8557 47.7421L19.3727 47.3915L18.8736 47.0699L17.8722 46.4266L16.8451 45.8187L16.3299 45.5163L15.7922 45.2236C14.3939 44.4505 12.936 43.7901 11.4325 43.2487C11.0558 43.1168 10.6759 42.9914 10.2959 42.8659C9.91597 42.7405 9.52959 42.6311 9.13999 42.5443C8.36626 42.3302 7.57557 42.1827 6.77661 42.1036Z" fill="#262626"/>
</g>
<defs>
<clipPath id="clip0_299_407">
<rect width="85.9702" height="100" fill="white" transform="translate(0.0148926)"/>
</clipPath>
</defs>
</svg>
