<svg width="50" height="56" viewBox="0 0 50 56" fill="none" xmlns="http://www.w3.org/2000/svg">
<g clip-path="url(#clip0_8_104)">
<path d="M25.3858 15.422C18.4296 15.422 12.8187 21.0329 12.8187 27.9892C12.8187 34.9454 18.4296 40.5563 25.3858 40.5563C32.3421 40.5563 37.953 34.9454 37.953 27.9892C37.953 21.0329 32.3421 15.422 25.3858 15.422ZM25.3858 36.1595C20.8905 36.1595 17.2155 32.4954 17.2155 27.9892C17.2155 23.4829 20.8796 19.8188 25.3858 19.8188C29.8921 19.8188 33.5562 23.4829 33.5562 27.9892C33.5562 32.4954 29.8812 36.1595 25.3858 36.1595ZM41.3983 14.9079C41.3983 16.5376 40.0858 17.8392 38.4671 17.8392C36.8374 17.8392 35.5358 16.5267 35.5358 14.9079C35.5358 13.2892 36.8483 11.9767 38.4671 11.9767C40.0858 11.9767 41.3983 13.2892 41.3983 14.9079ZM49.7218 17.8829C49.5358 13.9563 48.639 10.4782 45.7624 7.6126C42.8968 4.74697 39.4187 3.8501 35.4921 3.65322C31.4452 3.42354 19.3155 3.42354 15.2687 3.65322C11.353 3.83916 7.8749 4.73603 4.99834 7.60166C2.12178 10.4673 1.23584 13.9454 1.03896 17.872C0.809277 21.9188 0.809277 34.0485 1.03896 38.0954C1.2249 42.022 2.12178 45.5001 4.99834 48.3657C7.8749 51.2313 11.3421 52.1282 15.2687 52.3251C19.3155 52.5548 31.4452 52.5548 35.4921 52.3251C39.4187 52.1392 42.8968 51.2423 45.7624 48.3657C48.628 45.5001 49.5249 42.022 49.7218 38.0954C49.9515 34.0485 49.9515 21.9298 49.7218 17.8829ZM44.4937 42.4376C43.6405 44.5813 41.989 46.2329 39.8343 47.097C36.6077 48.3767 28.9515 48.0813 25.3858 48.0813C21.8202 48.0813 14.153 48.3657 10.9374 47.097C8.79365 46.2438 7.14209 44.5923 6.27803 42.4376C4.99834 39.211 5.29365 31.5548 5.29365 27.9892C5.29365 24.4235 5.00928 16.7563 6.27803 13.5407C7.13115 11.397 8.78271 9.74541 10.9374 8.88135C14.164 7.60166 21.8202 7.89697 25.3858 7.89697C28.9515 7.89697 36.6187 7.6126 39.8343 8.88135C41.978 9.73447 43.6296 11.386 44.4937 13.5407C45.7733 16.7673 45.478 24.4235 45.478 27.9892C45.478 31.5548 45.7733 39.222 44.4937 42.4376Z" fill="white"/>
</g>
<defs>
<clipPath id="clip0_8_104">
<rect width="49" height="56" fill="white" transform="translate(0.875)"/>
</clipPath>
</defs>
</svg>
