<svg width="34" height="34" viewBox="0 0 34 34" fill="none" xmlns="http://www.w3.org/2000/svg">
<path d="M16.9997 33.6666L9.91634 26.5833L12.2913 24.2083L15.333 27.2499V20.3333H18.6663V27.2083L21.6663 24.1666L24.083 26.5833L16.9997 33.6666ZM7.41634 24.0833L0.333008 16.9999L7.37467 9.95825L9.74967 12.3333L6.74967 15.3333H13.6663V18.6666H6.79134L9.83301 21.6666L7.41634 24.0833ZM26.583 24.0833L24.208 21.7083L27.2497 18.6666H20.333V15.3333H27.208L24.1663 12.3333L26.583 9.91658L33.6663 16.9999L26.583 24.0833ZM15.333 13.6666V6.74992L12.2913 9.79158L9.91634 7.41658L16.9997 0.333252L24.083 7.41658L21.708 9.79158L18.6663 6.74992V13.6666H15.333Z" fill="#0477BF"/>
</svg>
