<svg width="192" height="298" viewBox="0 0 192 298" fill="none" xmlns="http://www.w3.org/2000/svg">
<path d="M96.3824 220.785H96.8231C110.055 219.746 122.816 215.665 131.827 209.574C136.253 206.749 138.369 202.62 137.458 198.539C136.479 194.233 132.14 190.388 126.117 188.495C119.658 186.294 113.014 184.685 106.264 183.689C97.9235 182.415 89.5162 181.622 81.0843 181.315C79.0178 181.246 76.9023 181.217 74.7966 181.217C60.1841 181.193 45.6181 182.866 31.3899 186.2C28.3129 186.824 25.3434 187.894 22.5754 189.378C18.1975 191.889 16.1114 195.773 17.1594 199.481C18.4913 203.856 22.5264 206.573 29.4997 207.818C37.2581 209.689 45.211 210.631 53.1912 210.624C55.8258 210.624 58.4505 210.516 61.0263 210.31C66.4424 209.908 70.4677 208.976 73.3177 207.455C74.6845 206.756 76.2001 206.399 77.7348 206.416C78.0882 206.415 78.4414 206.435 78.7925 206.474C80.7513 206.641 82.4946 207.455 83.19 208.623C83.3638 208.862 83.4623 209.147 83.4728 209.442C83.4833 209.738 83.4052 210.03 83.2487 210.28C81.7013 211.732 78.91 212.732 75.7368 212.997C70.6244 213.282 65.845 213.419 61.1439 213.419C48.4221 213.512 35.7276 212.229 23.2806 209.594C17.2573 208.289 11.9392 207.024 7.74742 204.689C4.08449 202.865 1.68498 200.422 0.960233 197.823C0.0591927 194.881 1.84169 191.653 5.72008 189.044C9.67483 186.534 13.9338 184.539 18.3934 183.11C26.6676 180.519 35.1238 178.552 43.6911 177.225C51.0463 176.038 58.6366 175.42 65.7372 174.92C71.4079 174.527 77.4899 174.263 84.7766 174.086C87.2055 173.978 89.6736 173.929 92.1123 173.929C105.383 173.904 118.614 175.385 131.552 178.343C136.949 179.598 143.854 181.393 149.495 184.179C156.586 187.279 161.248 191.771 162.335 196.509C163.03 199.942 161.551 203.483 158.26 206.17C153.48 210.193 148.167 213.533 142.473 216.097C135.005 219.483 127.179 222.014 119.143 223.64C106.88 226.368 94.352 227.727 81.7895 227.691C77.0002 227.691 72.26 227.495 67.7058 227.102C54.6701 226.004 34.142 221.943 23.7017 217.294L23.0553 216.96C21.2043 216.038 17.3553 214.116 17.2279 213.105C17.2279 213.105 17.2279 212.988 17.3846 212.88C17.5413 212.772 17.5511 212.801 17.8254 212.801C19.458 213.009 21.0595 213.414 22.595 214.008C26.9084 215.537 31.3691 216.612 35.9049 217.215C46.4744 219.013 57.156 220.072 67.8723 220.383H69.0867C75.6718 220.351 82.2359 219.638 88.6746 218.255C94.3355 216.989 100.976 213.184 102.846 210.114C104.599 207.171 103.934 203.787 101.123 201.178C98.3118 198.569 93.2875 196.715 88.3122 196.489H88.1849C85.2467 196.636 82.4554 197.029 79.6936 197.411C76.5786 197.901 73.4403 198.229 70.2914 198.392H69.9878C66.8341 198.392 64.2485 196.783 64.1114 195.4V195.293C63.9351 194.047 65.6589 192.428 68.5089 192.016C71.2349 191.638 73.9838 191.452 76.7358 191.457C83.7536 191.398 90.7234 192.621 97.303 195.067C102.014 196.95 105.138 198.794 106.95 200.864C109.33 203.669 109.261 207.161 106.735 210.673C104.51 213.577 101.556 215.838 98.1747 217.225L97.352 217.598C96.7856 217.804 96.2488 218.084 95.7556 218.431L94.1494 219.716C92.9643 220.217 92.171 220.835 96.3824 220.785ZM125.186 218C130.612 216.636 138.594 214.429 145.244 210.996C150.553 208.446 153.834 205.964 155.538 203.218C157.967 199.795 157.359 195.371 153.951 192.056C149.56 187.935 144.298 184.86 138.555 183.061C123.067 177.864 106.83 175.259 90.4963 175.351C85.8148 175.351 81.1235 175.567 76.5595 175.979C76.1064 176.003 75.6654 176.133 75.2722 176.36C74.879 176.587 74.5449 176.903 74.2971 177.284L74.0621 177.735L74.2775 178.578V178.667C74.5589 179.112 74.9546 179.474 75.4233 179.713C75.8919 179.953 76.4162 180.063 76.9415 180.03C87.2936 180.57 97.685 181.56 107.831 182.973C115.705 184.044 123.453 185.89 130.965 188.485C136.048 190.31 140.308 193.007 142.933 196.107C143.481 196.678 143.901 197.358 144.168 198.104C144.435 198.849 144.541 199.643 144.48 200.432C144.284 202.11 143.227 203.924 141.268 205.984C138.927 208.436 135.392 210.398 131.964 212.193C129.489 213.416 126.952 214.51 124.364 215.469C123.404 216.038 118.203 219.069 125.186 218ZM28.5693 181.462C23.1447 182.317 17.8686 183.939 12.899 186.278C6.6505 189.142 3.35974 193.88 4.54481 198.333C5.34791 201.08 8.05103 203.62 11.7531 205.003C11.8294 205.035 11.908 205.061 11.9882 205.082L12.1449 205.15H12.4289C12.7894 205.148 13.1433 205.053 13.4573 204.876L14.6913 204.218L13.9078 203.022C13.7229 202.747 13.5234 202.481 13.3104 202.227C13.1194 202.003 12.9427 201.767 12.7815 201.521C12.0581 200.484 11.6194 199.275 11.5094 198.015C11.3994 196.755 11.6219 195.488 12.1547 194.341C13.232 191.781 16.0723 189.339 20.6068 187.043C23.3546 185.781 26.2094 184.766 29.1373 184.012C31.8503 183.424 35.4642 180.677 28.5693 181.462Z" fill="#326C73" fill-opacity="0.4"/>
<path d="M107.734 298C99.2523 298 90.8095 296.858 82.6318 294.606L82.2792 294.508L81.9266 294.606C74.1338 296.745 66.0899 297.827 58.0099 297.824C50.2082 297.811 42.4369 296.849 34.8668 294.959C34.5396 294.704 34.2832 294.369 34.122 293.986C33.9609 293.603 33.9003 293.185 33.9462 292.772C34.0809 292.316 34.3241 291.899 34.655 291.557C34.9859 291.215 35.3947 290.959 35.8462 290.81C42.6467 292.282 49.5833 293.032 56.5408 293.047C60.6779 293.043 64.8102 292.765 68.9105 292.213L73.7487 291.566L69.2533 289.663C39.8715 277.294 15.945 251.31 0.108211 214.518C0.0287783 214.224 0.0147998 213.916 0.0672634 213.616C0.119727 213.316 0.237352 213.031 0.411822 212.782C0.58239 212.581 0.795996 212.421 1.03677 212.314C1.27754 212.207 1.53928 212.155 1.80256 212.164C2.45514 212.179 3.08189 212.422 3.57526 212.85C8.13922 226.279 33.8385 276.548 81.9266 290.604L82.2988 290.712L82.671 290.604C131.415 276.342 157.722 226.318 162.002 213.91C162.528 213.362 163.214 212.995 163.96 212.86C164.029 212.86 164.274 213.213 164.019 214.4C148.104 251.36 124.324 277.353 95.2561 289.574L90.7607 291.468L95.5989 292.125C101.082 292.917 106.611 293.343 112.151 293.4C117.576 293.407 122.988 292.855 128.301 291.752C129.574 292.233 130.465 292.998 130.602 293.714C130.616 294.019 130.555 294.323 130.423 294.598C130.292 294.874 130.094 295.112 129.848 295.293C122.612 297.083 115.187 297.992 107.734 298Z" fill="#326C73" fill-opacity="0.4"/>
<path d="M150.572 275.754C150.19 275.754 149.818 275.754 149.455 275.754C148.148 275.684 146.876 275.304 145.743 274.645C145.552 274.516 145.413 274.322 145.35 274.1C145.288 273.877 145.305 273.64 145.401 273.429C145.535 273.141 145.773 272.913 146.067 272.791C146.212 272.743 146.364 272.716 146.517 272.713C146.636 272.707 146.755 272.735 146.86 272.791C148.089 273.35 149.429 273.618 150.777 273.576C152.422 273.565 154.049 273.232 155.567 272.595C158.452 271.449 160.979 269.549 162.883 267.093L163.921 265.7L162.305 265.062C158.814 263.714 155.944 261.122 154.244 257.784C152.423 253.978 152.207 250.28 153.647 247.367C154.182 246.277 154.959 245.323 155.918 244.578C156.877 243.834 157.993 243.318 159.181 243.071C159.609 242.983 160.046 242.941 160.483 242.943C162.242 242.973 163.949 243.538 165.38 244.562C167.016 245.7 169.141 247.985 170.032 252.409C170.659 255.699 170.343 259.1 169.121 262.218L168.377 264.179L170.463 264.022C173.534 263.795 176.518 262.901 179.209 261.404C188.592 255.95 189.532 245.808 186.3 238.167C185.229 235.789 183.695 233.649 181.788 231.872C179.881 230.095 177.639 228.717 175.194 227.818C172.413 226.714 169.449 226.145 166.458 226.141C163.567 226.122 160.703 226.7 158.045 227.838C157.919 227.883 157.786 227.906 157.653 227.907C157.47 227.913 157.29 227.864 157.137 227.766C156.983 227.668 156.862 227.525 156.791 227.357V227.259V227.171C156.787 227.119 156.787 227.066 156.791 227.014V226.867V226.73C156.722 226.502 156.738 226.258 156.835 226.042C156.932 225.825 157.104 225.651 157.32 225.552C161.075 223.792 165.162 222.852 169.308 222.796C172.178 222.788 175.026 223.307 177.711 224.326C183.331 226.538 187.86 230.87 190.325 236.391C194.106 244.984 191.785 257.382 180.022 263.434C176.636 265.244 172.871 266.226 169.033 266.298C168.632 266.298 168.25 266.298 167.858 266.298L167.114 266.249L166.683 266.857C164.12 270.498 160.498 273.259 156.311 274.763C154.468 275.417 152.527 275.752 150.572 275.754ZM159.876 245.347C159.589 245.346 159.303 245.379 159.024 245.445C158.247 245.648 157.527 246.027 156.92 246.553C156.312 247.078 155.832 247.736 155.518 248.476C154.871 249.868 154.127 252.801 156.262 256.891C157.806 259.879 160.462 262.138 163.656 263.179L164.93 263.601L165.341 262.326C166.265 259.366 166.467 256.228 165.929 253.174C165.282 249.908 163.823 247.289 162.011 246.033C161.47 245.658 160.844 245.425 160.189 245.356L159.876 245.347Z" fill="#326C73" fill-opacity="0.4"/>
<path d="M86.6375 159.343C86.5161 159.35 86.3949 159.327 86.2849 159.275C86.2849 158.833 86.6669 157.097 90.036 151.261C99.0268 134.9 98.968 111.398 96.8134 100.432C93.3953 82.8547 82.0441 71.0057 72.0249 60.6182L71.8291 60.4024C69.361 57.8718 67.0398 55.4098 64.8754 52.9674C53.3479 39.8433 50.6938 27.9943 56.2763 14.5171C60.1939 4.98294 70.0564 9.16595e-05 77.7838 9.16595e-05C78.7684 -0.00313646 79.7514 0.0789088 80.7219 0.245311C82.738 0.624854 84.6542 1.41651 86.3511 2.57086C88.048 3.72521 89.4891 5.21747 90.5844 6.9545C91.8413 8.89855 92.6772 11.0849 93.0382 13.3725C93.3992 15.6601 93.2773 17.9981 92.6803 20.2356C90.3396 29.3773 83.7091 35.5176 78.9688 35.5176C78.4941 35.5235 78.0214 35.4539 77.5683 35.3116C81.7993 33.3499 85.8931 28.4455 87.7834 22.8839C88.4415 20.6768 88.6151 18.3533 88.2922 16.0726C87.9693 13.792 87.1576 11.6084 85.9127 9.67153C83.4642 5.58128 79.5859 2.55037 76.0307 1.96184C75.2922 1.84219 74.5457 1.77988 73.7976 1.77548C67.7352 1.77548 62.7305 5.9442 59.7042 13.546C54.1217 27.5823 56.766 39.5 68.3914 52.1827C69.6973 53.5755 71.0031 54.9815 72.309 56.4005C83.523 68.426 96.2453 82.0504 101.426 101.786C105.099 115.763 100.819 142.649 89.605 157.696C88.8647 158.607 87.8017 159.197 86.6375 159.343Z" fill="#326C73" fill-opacity="0.4"/>
<path d="M55.0126 195.969C54.6732 195.963 54.3483 195.83 54.1017 195.597C50.4192 192.291 47.5986 186.288 46.1589 178.667C44.9053 172.085 44.8465 164.934 45.9924 160.03C49.2733 145.768 57.2456 133.939 64.2678 123.492L66.7163 119.844C73.7875 109.162 75.4525 100.913 72.1226 93.0951C70.7318 89.9366 68.587 88.1907 66.0895 88.1907C64.8296 88.22 63.5958 88.5566 62.4951 89.1715C58.1075 91.506 53.7981 99.765 55.5708 104.689C56.7755 108.093 59.4884 110.466 62.2601 110.466H62.5539C62.1312 111.005 61.5911 111.44 60.9749 111.737C60.3587 112.035 59.6828 112.187 58.9987 112.183C56.2858 112.183 52.9559 109.868 51.6141 104.699C50.0177 98.4702 54.4739 90.8096 59.508 88.1122C61.4518 87.0697 63.6201 86.5176 65.8251 86.5036C67.7686 86.4251 69.6914 86.928 71.3485 87.9482C73.0055 88.9684 74.3217 90.4597 75.1293 92.2319C78.6061 100.079 76.902 108.583 69.6055 119.961C68.2735 122.031 66.8632 124.091 65.1493 126.563C58.9301 135.596 51.8981 145.798 49.7532 157.951C48.1666 167.033 48.3233 184.287 55.4925 191.928C56.4719 192.987 56.8245 194.076 56.4719 194.939C56.3544 195.234 56.154 195.489 55.8949 195.671C55.6358 195.854 55.3293 195.958 55.0126 195.969Z" fill="#326C73" fill-opacity="0.4"/>
</svg>
